<?xml version="1.0" encoding="UTF-8"?>
<svg id="Layer_2" data-name="Layer 2" xmlns="http://www.w3.org/2000/svg" viewBox="0 0 182.96 183">
  <defs>
    <style>
      .cls-1 {
        fill: #be1e2d;
      }

      .cls-2 {
        fill: #ed1c24;
      }

      .cls-3 {
        fill: #231f20;
      }

      .cls-4 {
        fill: #58595b;
      }

      .cls-5 {
        fill: #414042;
      }
    </style>
  </defs>
  <g id="cd">
    <g id="CD">
      <g>
        <path class="cls-4" d="m91.5,2.5C42.34,2.5,2.5,42.35,2.5,91.5s39.85,89,89,89,89-39.85,89-89S140.65,2.5,91.5,2.5Zm.5,117.5c-15.46,0-28-12.54-28-28s12.54-28,28-28,28,12.54,28,28-12.54,28-28,28Z"/>
        <g>
          <path class="cls-5" d="m91.5,0c-18.89.04-37.59,5.9-52.97,16.9C23.45,27.68,11.87,42.81,5.49,60.21c-6.58,17.94-7.25,37.99-2.02,56.37,5.04,17.69,15.53,33.75,29.73,45.44s32.49,19.25,51.3,20.71,38.25-3.12,54.49-13.01c15.59-9.5,28.28-23.7,35.8-40.34,7.96-17.61,10.18-37.45,6.32-56.4-3.68-18.05-13.02-34.83-26.32-47.55-13.43-12.85-30.75-21.53-49.14-24.32C100.96.39,96.24,0,91.5,0c-3.22,0-3.22,4.99,0,5,17.96.03,35.53,5.63,50.18,16.03,14.11,10.01,25.13,24.42,31.05,40.68,6.24,17.11,6.95,36.03,1.96,53.55-4.81,16.87-14.81,31.97-28.32,43.13-13.58,11.21-30.68,18.08-48.23,19.37-17.97,1.33-36.06-2.91-51.48-12.27s-26.79-22.51-34.01-38.33c-7.48-16.39-9.54-35.21-5.95-52.85s12.31-33.17,25.04-45.35S60.88,8.7,78.33,5.98c4.35-.68,8.76-.97,13.16-.98C94.71,4.99,94.72,0,91.5,0Z"/>
          <path class="cls-5" d="m92,117.5c-10.58-.06-20.43-6.76-23.99-16.81s-.43-21.58,7.88-28.48c8.17-6.79,20.21-7.51,29.26-2.06,9.03,5.43,13.95,16.29,11.9,26.66-2.36,11.93-12.91,20.61-25.05,20.69-3.22.02-3.22,5.02,0,5,12.8-.08,24.28-8.17,28.7-20.17s.56-25.77-9.18-33.76-24.15-9.39-35.19-2.74-16.7,19.72-14.2,32.31,12.65,22.05,24.9,23.94c1.65.25,3.3.41,4.97.42,3.22.02,3.22-4.98,0-5Z"/>
        </g>
      </g>
      <g>
        <path class="cls-2" d="m92,63.5c-15.74,0-28.5,12.76-28.5,28.5s12.76,28.5,28.5,28.5,28.5-12.76,28.5-28.5-12.76-28.5-28.5-28.5Zm0,33.06c-2.52,0-4.56-2.04-4.56-4.56s2.04-4.56,4.56-4.56,4.56,2.04,4.56,4.56-2.04,4.56-4.56,4.56Z"/>
        <g>
          <path class="cls-1" d="m92,61c-13,.08-24.67,8.29-29.16,20.48s-.59,26.17,9.29,34.31,24.65,9.58,35.89,2.76c11.14-6.76,16.84-19.95,14.36-32.7-2.42-12.4-12.89-22.53-25.4-24.43-1.65-.25-3.31-.4-4.98-.41-3.22-.02-3.22,4.98,0,5,10.71.06,20.72,6.8,24.4,16.96s.56,22.1-7.94,29.18-20.7,7.69-29.95,2.08c-9.24-5.6-14.2-16.78-11.99-27.39,2.5-12.04,13.21-20.76,25.49-20.84,3.22-.02,3.22-5.02,0-5Z"/>
          <path class="cls-1" d="m92,94.06c-.13,0-.25-.01-.38-.02-.41-.01.31.04.29.04-.13.04-.46-.1-.6-.14-.09-.03-.27-.06-.34-.12,0,0,.61.3.27.1-.21-.12-.41-.23-.61-.37-.37-.24.39.36.18.13-.07-.07-.15-.13-.22-.2-.18-.18-.5-.71-.08-.03-.1-.17-.23-.32-.33-.5-.04-.07-.07-.14-.11-.21-.22-.39.2.63.04.1-.06-.2-.12-.39-.16-.59-.05-.24.03-.42.02.24,0-.1-.02-.21-.02-.31,0-.21,0-.42.02-.63.02-.33-.13.69-.03.23.03-.12.05-.24.08-.36s.07-.23.11-.35c.07-.2.2-.22-.11.26.11-.17.18-.36.29-.52.05-.08.12-.16.17-.25.16-.26-.44.5-.13.18.16-.17.36-.32.51-.5-.37.41-.4.29-.22.17.1-.07.2-.13.3-.2.07-.04.14-.08.21-.12.21-.11.51-.13-.16.05.19-.05.38-.14.58-.19.08-.02.16-.04.24-.05.46-.1-.69.06-.11.02.19-.01.38-.01.57,0,.23.01.56.14-.17-.03.08.02.16.03.24.05.2.04.39.11.58.17.45.14-.56-.29-.15-.06.1.06.21.11.32.17.09.05.17.11.25.16.21.13.22.31-.17-.14.13.15.3.26.43.41.06.07.31.38.03.02s-.03-.04.02.03c.09.14.36.46.35.62,0,.01-.23-.64-.11-.26.04.12.08.23.11.35.04.13.14.76.08.27s0,.23,0,.36c0,.11-.01.21-.01.32-.02.47.12-.6.02-.17-.06.24-.12.47-.2.7-.14.43.25-.47.09-.21-.07.12-.13.25-.2.37-.04.07-.08.14-.13.2-.35.52.32-.33.03-.04-.14.14-.28.28-.42.42-.33.32.52-.35.13-.1-.1.07-.2.13-.3.2s-.21.11-.32.17c-.37.21.59-.2.15-.06-.23.08-.46.14-.7.2-.2.05-.35-.04.3-.03-.17,0-.34.03-.51.03-1.31.02-2.56,1.14-2.5,2.5s1.1,2.52,2.5,2.5c3.04-.04,5.61-1.94,6.67-4.76.97-2.59.11-5.85-2.03-7.61-1.24-1.02-2.6-1.57-4.2-1.73-1.37-.13-2.86.26-4.04.96s-2.17,1.74-2.73,2.96c-.68,1.48-.86,2.99-.57,4.6.58,3.25,3.69,5.54,6.9,5.58,1.31.02,2.56-1.16,2.5-2.5s-1.1-2.48-2.5-2.5Z"/>
        </g>
      </g>
      <g id="the_lines" data-name="the lines">
        <g id="the_cruve" data-name="the cruve">
          <path class="cls-3" d="m55,93.5c.07-15.94,10.84-30.01,25.79-35.19,4.43-1.53,9.03-2.29,13.71-2.31,3.22-.01,3.22-5.01,0-5-18.11.07-35.1,10.81-41.77,27.84-1.82,4.65-2.71,9.67-2.73,14.66-.01,3.22,4.99,3.22,5,0h0Z"/>
        </g>
        <g id="the_cruve-2" data-name="the cruve">
          <path class="cls-3" d="m40.66,92.82c.03-10.91,3.5-21.49,9.89-30.33s14.9-15.01,24.69-18.54c5.98-2.16,12.24-3.24,18.6-3.26,3.22,0,3.22-5.01,0-5-11.93.04-23.8,3.62-33.59,10.48s-16.9,16.04-21.02,26.94c-2.38,6.28-3.54,13.01-3.56,19.72-.01,3.22,4.99,3.22,5,0h0Z"/>
        </g>
        <g id="the_cruve-3" data-name="the cruve">
          <path class="cls-3" d="m26.83,92.63c.03-13.88,4.41-27.4,12.51-38.68,7.82-10.91,19.1-19.38,31.71-23.95,7.58-2.74,15.55-4.12,23.61-4.14,3.22,0,3.22-5.01,0-5-14.96.04-29.82,4.57-42.09,13.18-11.94,8.39-21.17,20.19-26.3,33.86-2.96,7.88-4.42,16.31-4.44,24.73,0,3.22,4.99,3.22,5,0h0Z"/>
        </g>
      </g>
      <g id="the_lines-2" data-name="the lines">
        <g id="the_cruve-4" data-name="the cruve">
          <path class="cls-3" d="m135.95,93.23c-.07,15.94-10.84,30.01-25.79,35.19-4.43,1.53-9.03,2.29-13.71,2.31-3.22.01-3.22,5.01,0,5,18.11-.07,35.1-10.81,41.77-27.84,1.82-4.65,2.71-9.67,2.73-14.66.01-3.22-4.99-3.22-5,0h0Z"/>
        </g>
        <g id="the_cruve-5" data-name="the cruve">
          <path class="cls-3" d="m150.29,93.91c-.03,10.91-3.5,21.49-9.89,30.33-6.1,8.44-14.9,15.01-24.69,18.54-5.98,2.16-12.24,3.24-18.6,3.26-3.22,0-3.22,5.01,0,5,11.93-.04,23.8-3.62,33.59-10.48,9.54-6.68,16.9-16.04,21.02-26.94,2.38-6.28,3.54-13.01,3.56-19.72.01-3.22-4.99-3.22-5,0h0Z"/>
        </g>
        <g id="the_cruve-6" data-name="the cruve">
          <path class="cls-3" d="m164.12,94.09c-.03,13.88-4.41,27.4-12.51,38.68-7.82,10.91-19.1,19.38-31.71,23.95-7.58,2.74-15.55,4.12-23.61,4.14-3.22,0-3.22,5.01,0,5,14.96-.04,29.82-4.57,42.09-13.18,11.94-8.39,21.17-20.19,26.3-33.86,2.96-7.88,4.42-16.31,4.44-24.73,0-3.22-4.99-3.22-5,0h0Z"/>
        </g>
      </g>
    </g>
  </g>
</svg>