<?xml version="1.0" encoding="UTF-8"?>
<svg id="Layer_2" data-name="Layer 2" xmlns="http://www.w3.org/2000/svg" viewBox="0 0 190 190">
  <defs>
    <style>
      .cls-1 {
        fill: none;
        stroke: #231f20;
        stroke-miterlimit: 10;
        stroke-width: 4px;
      }
    </style>
  </defs>
  <g id="Layer_1-2" data-name="Layer 1">
    <g id="mute">
      <path class="cls-1" d="m72.67,54.17l-22.89,22.89c-1.38-2.66-4.16-4.48-7.36-4.48h-5.3c-4.58,0-8.29,3.71-8.29,8.29v39.6c0,4.58,3.71,8.29,8.29,8.29h5.3c3.14,0,5.87-1.75,7.28-4.32l21.56,21.56c5.29,5.29,14.53,1.34,14.64-6.25l1.23-79.79c.12-7.59-9.01-11.26-14.46-5.8Z"/>
      <path class="cls-1" d="m130.12,99.79l16.02-16.02c2.49-2.49,2.49-6.52,0-9-2.49-2.49-6.52-2.49-9,0l-16.02,16.02-15.49-15.49c-2.49-2.49-6.52-2.49-9,0-2.49,2.49-2.49,6.52,0,9l15.49,15.49-15.49,15.49c-2.49,2.49-2.49,6.52,0,9h0c2.49,2.49,6.52,2.49,9,0l15.49-15.49,16.02,16.02c2.49,2.49,6.52,2.49,9,0h0c2.49-2.49,2.49-6.52,0-9l-16.02-16.02Z"/>
    </g>
    <circle class="cls-1" cx="95" cy="95" r="93"/>
  </g>
</svg>