<?xml version="1.0" encoding="UTF-8"?>
<svg id="Layer_2" data-name="Layer 2" xmlns="http://www.w3.org/2000/svg" viewBox="0 0 190 190">
  <defs>
    <style>
      .cls-1 {
        fill: none;
        stroke: #fff;
        stroke-miterlimit: 10;
        stroke-width: 4px;
      }
    </style>
  </defs>
  <g id="Layer_1-2" data-name="Layer 1">
    <g>
      <path class="cls-1" d="m73.37,54.24l-21.07,21.07c-1.27-2.45-3.82-4.12-6.77-4.12h-4.88c-4.22,0-7.63,3.42-7.63,7.63v36.45c0,4.22,3.42,7.63,7.63,7.63h4.88c2.89,0,5.4-1.61,6.7-3.98l19.84,19.84c4.87,4.87,13.37,1.24,13.48-5.75l1.13-73.44c.11-6.99-8.29-10.36-13.31-5.34Z"/>
      <path class="cls-1" d="m92.62,64.3v.69c0,2.03,1.53,3.72,3.54,3.99,13.06,1.73,23.13,12.91,23.13,26.44s-10.07,24.71-23.13,26.44c-2.02.27-3.54,1.95-3.54,3.99v.69c0,2.4,2.1,4.29,4.49,3.99,17.42-2.21,30.9-17.08,30.9-35.1s-13.47-32.9-30.9-35.1c-2.39-.3-4.49,1.59-4.49,3.99Z"/>
      <path class="cls-1" d="m111.4,55.4v.88c0,2.62,1.96,4.78,4.56,5.13,16.79,2.23,29.75,16.6,29.75,34s-12.96,31.78-29.75,34c-2.59.34-4.56,2.51-4.56,5.13v.88c0,3.09,2.7,5.52,5.77,5.13,22.41-2.84,39.73-21.97,39.73-45.14s-17.33-42.31-39.73-45.14c-3.07-.39-5.77,2.04-5.77,5.13Z"/>
    </g>
    <circle class="cls-1" cx="95" cy="95" r="93"/>
  </g>
</svg>